<?xml version="1.0" standalone="no"?>
<!DOCTYPE svg PUBLIC "-//W3C//DTD SVG 20010904//EN"
 "http://www.w3.org/TR/2001/REC-SVG-20010904/DTD/svg10.dtd">
<svg version="1.0" xmlns="http://www.w3.org/2000/svg"
 width="984.000000pt" height="1280.000000pt" viewBox="0 0 984.000000 1280.000000"
 preserveAspectRatio="xMidYMid meet">
<metadata>
Created by potrace 1.15, written by Peter Selinger 2001-2017
</metadata>
<g transform="translate(0.000000,1280.000000) scale(0.100000,-0.100000)"
fill="#000000" stroke="none">
<path d="M4725 12793 c-214 -17 -402 -50 -660 -114 -718 -180 -1270 -470
-1709 -899 -241 -236 -379 -425 -527 -726 -146 -298 -189 -464 -146 -566 17
-40 68 -78 105 -78 12 0 22 -2 22 -6 0 -3 -14 -58 -30 -122 -76 -292 -111
-572 -111 -897 1 -441 61 -793 206 -1198 170 -479 434 -894 797 -1261 82 -82
147 -150 146 -151 -2 -1 -52 -28 -112 -60 -1050 -555 -1875 -1479 -2324 -2601
-247 -618 -375 -1260 -376 -1894 -1 -258 3 -289 51 -445 215 -691 1123 -1244
2533 -1544 493 -105 974 -168 1635 -213 242 -16 1152 -16 1405 0 1518 99 2682
400 3425 887 424 278 669 593 760 975 57 241 6 920 -106 1412 -256 1132 -867
2134 -1744 2863 -242 201 -507 379 -808 543 l-127 69 86 78 c368 335 690 824
874 1326 l46 127 33 -74 c36 -80 81 -127 115 -122 20 3 22 12 32 148 48 607
49 1219 3 1675 -92 921 -365 1619 -817 2087 -131 135 -227 216 -371 312 -410
274 -921 425 -1581 466 -149 9 -626 11 -725 3z"/>
</g>
</svg>
